<?xml version="1.0" encoding="iso-8859-1"?>
<!-- Generator: Adobe Illustrator 21.0.0, SVG Export Plug-In . SVG Version: 6.00 Build 0)  -->
<svg version="1.1" id="Capa_1" xmlns="http://www.w3.org/2000/svg" xmlns:xlink="http://www.w3.org/1999/xlink" x="0px" y="0px"
	 viewBox="0 0 512 512" style="enable-background:new 0 0 512 512;" xml:space="preserve">
<g>
	<rect x="26.483" y="88.276" style="fill:#B0D3F0;" width="353.103" height="388.414"/>
	<path style="fill:#2C3E50;" d="M459.034,467.862c-4.875,0-8.828-3.952-8.828-8.828V229.517c0-4.875,3.952-8.828,8.828-8.828
		s8.828,3.952,8.828,8.828v229.517C467.862,463.91,463.91,467.862,459.034,467.862z"/>
	<g>
		<rect x="361.931" y="88.276" style="fill:#285680;" width="44.138" height="388.414"/>
		<rect y="88.276" style="fill:#285680;" width="44.138" height="388.414"/>
	</g>
	<path style="fill:#67B9CC;" d="M344.276,0H61.793C27.666,0,0,27.666,0,61.793v26.483h406.069V61.793
		C406.069,27.666,378.403,0,344.276,0z"/>
	<g>
		<path style="fill:#9FC9D3;" d="M344.276,61.793v8.828h-79.448v-8.828C264.828,27.666,237.162,0,203.034,0h79.448
			C316.61,0,344.276,27.666,344.276,61.793z"/>
		<path style="fill:#9FC9D3;" d="M203.034,0c-34.127,0-61.793,27.666-61.793,61.793v8.828H61.793v-8.828
			C61.793,27.666,89.459,0,123.586,0H203.034z"/>
	</g>
	<rect y="70.621" style="fill:#4482C3;" width="406.069" height="35.31"/>
	<g>
		<path style="fill:#D25627;" d="M123.586,467.862c-4.875,0-8.828-3.952-8.828-8.828v-44.138c0-4.875,3.952-8.828,8.828-8.828
			c4.875,0,8.828,3.952,8.828,8.828v44.138C132.414,463.91,128.462,467.862,123.586,467.862z"/>
		<path style="fill:#D25627;" d="M282.483,467.862c-4.875,0-8.828-3.952-8.828-8.828v-44.138c0-4.875,3.952-8.828,8.828-8.828
			s8.828,3.952,8.828,8.828v44.138C291.31,463.91,287.358,467.862,282.483,467.862z"/>
	</g>
	<circle style="fill:#E64C3C;" cx="459.034" cy="203.034" r="52.966"/>
	<path style="fill:#BDC3C7;" d="M0,459.034h503.172c4.875,0,8.828,3.952,8.828,8.828v35.31c0,4.875-3.952,8.828-8.828,8.828H8.828
		C3.952,512,0,508.048,0,503.172V459.034z"/>
	<path style="fill:#F29C1F;" d="M88.276,379.586h229.517c4.875,0,8.828,3.952,8.828,8.828v17.655c0,4.875-3.952,8.828-8.828,8.828
		H88.276c-4.875,0-8.828-3.952-8.828-8.828v-17.655C79.448,383.538,83.401,379.586,88.276,379.586z"/>
	<path style="fill:#E57E25;" d="M123.586,282.483h158.897c9.751,0,17.655,7.905,17.655,17.655v79.448H105.931v-79.448
		C105.931,290.387,113.836,282.483,123.586,282.483z"/>
	<path style="fill:#D25627;" d="M247.172,326.621h-88.276c-4.875,0-8.828-3.952-8.828-8.828s3.952-8.828,8.828-8.828h88.276
		c4.875,0,8.828,3.952,8.828,8.828S252.048,326.621,247.172,326.621z"/>
</g>
<g>
</g>
<g>
</g>
<g>
</g>
<g>
</g>
<g>
</g>
<g>
</g>
<g>
</g>
<g>
</g>
<g>
</g>
<g>
</g>
<g>
</g>
<g>
</g>
<g>
</g>
<g>
</g>
<g>
</g>
</svg>
