<?xml version="1.0" encoding="UTF-8"?>
<svg xmlns="http://www.w3.org/2000/svg" viewBox="0 0 210 88"><link xmlns="" type="text/css" id="dark-mode" rel="stylesheet" href=""/><style xmlns="" type="text/css" id="dark-mode-custom-style"/><defs><style>.a{fill:none;}.b{fill:#009ecf;}.c{fill:#444c4c;}.d{fill:#009fd2;}</style></defs><title>Tavola disegno 1</title><path class="a" d="M94.61,62.65q0,10.31-5.56,15l5.74,5.13-5.28,4.85-7.64-7-2.2.14q-7,0-11-4.77t-4-13.22V56.26q0-8.55,4-13.36t11-4.8q6.87,0,10.87,4.62t4.13,13ZM86.2,56.21q0-5.67-1.63-8.39a5.91,5.91,0,0,0-9.89-.07q-1.61,2.64-1.66,8v6.87c0,3.81.55,6.61,1.64,8.42a5.48,5.48,0,0,0,5,2.71,5.32,5.32,0,0,0,4.89-2.7c1.07-1.79,1.62-4.54,1.64-8.23Z"/><path class="b" d="M94.61,62.8H86.2v.05c0,3.69-.57,6.44-1.64,8.23a5.32,5.32,0,0,1-4.89,2.7,5.48,5.48,0,0,1-5-2.71Q73,68.4,73,62.8H64.64q0,8.43,4,13.19t11,4.77l2.2-.14,7.64,7,5.28-4.85-5.74-5.13Q94.57,73,94.61,62.8Z"/><path class="b" d="M73,56.18v-.4q.06-5.39,1.66-8a5.91,5.91,0,0,1,9.89.07q1.64,2.7,1.63,8.36h8.41v-.49q-.14-8.36-4.13-13T79.61,38.1q-7,0-11,4.8t-4,13.28Z"/><path class="c" d="M8.94,72.9H23.66v6.95H.55V38.33H8.94Z"/><path class="d" d="M24,39.77a6.66,6.66,0,0,1,1,3.83,14,14,0,0,1-1.08,4.82,21.49,21.49,0,0,1-2.57,4.9c-1,1.39-1.9,2.08-2.72,2.08a1.56,1.56,0,0,1-1.22-.53,1.81,1.81,0,0,1-.47-1.28,2,2,0,0,1,.18-.82,14.12,14.12,0,0,0,1.4-5.37A11.86,11.86,0,0,0,18,44.53a15.57,15.57,0,0,1-.41-2.74,3.33,3.33,0,0,1,1.05-2.48,3.45,3.45,0,0,1,2.51-1A3.21,3.21,0,0,1,24,39.77Z"/><path class="c" d="M51.06,71.36H39.62L37.4,79.85H28.53l13-41.52h7.67L62.24,79.85h-9Zm-9.61-7h7.76l-3.88-14.8Z"/><path class="c" d="M127.79,38.33V67.08q-.06,6.48-3.57,9.91t-10.07,3.43q-6.68,0-10.19-3.47t-3.53-10.07V38.33h8.44V66.9c0,2.36.39,4,1.15,5s2.14,1.52,4.13,1.52,3.37-.5,4.11-1.5,1.12-2.64,1.14-4.92V38.33Z"/><path class="c" d="M142.9,79.85h-8.38V38.33h8.38Z"/><path class="c" d="M158.33,72.9h14.72v6.95H150V38.33h8.38Z"/><path class="c" d="M198.26,71.36H186.83l-2.23,8.49h-8.87l13-41.52h7.67l13.07,41.52h-9Zm-9.61-7h7.76l-3.88-14.8Z"/><path class="d" d="M70.26,10.81a9.36,9.36,0,0,1,3.5,3.77A11.82,11.82,0,0,1,75,20.08a1.35,1.35,0,0,1-.4,1,1.43,1.43,0,0,1-1,.37h-16a7.78,7.78,0,0,0,8.06,7.28,8.79,8.79,0,0,0,2.87-.49A7,7,0,0,0,70.85,27a1.78,1.78,0,0,1,1.07-.4,1.49,1.49,0,0,1,.87.32A1.45,1.45,0,0,1,73.31,28a1.22,1.22,0,0,1-.44.91,10.81,10.81,0,0,1-3.32,1.84,11.58,11.58,0,0,1-3.88.73A11.25,11.25,0,0,1,60,30.06a10,10,0,0,1-3.9-3.91,11.48,11.48,0,0,1-1.4-5.67,12,12,0,0,1,1.33-5.72,9.68,9.68,0,0,1,3.67-3.91,10.24,10.24,0,0,1,5.36-1.41A9.8,9.8,0,0,1,70.26,10.81ZM60.1,14a8,8,0,0,0-2.41,4.9H72.16A7.7,7.7,0,0,0,69.94,14a6.64,6.64,0,0,0-4.86-1.86A7,7,0,0,0,60.1,14Z"/><path class="d" d="M95.43,10.59a8.51,8.51,0,0,1,3.5,3.46,11.07,11.07,0,0,1,1.26,5.44V29.77a1.47,1.47,0,0,1-1.5,1.5,1.5,1.5,0,0,1-1.11-.43,1.46,1.46,0,0,1-.43-1.07V19.49a7,7,0,0,0-2-5.36,7.15,7.15,0,0,0-5.12-1.84,8,8,0,0,0-3.5.75,6.23,6.23,0,0,0-2.47,2.08,5,5,0,0,0-.91,2.94V29.77a1.42,1.42,0,0,1-1.5,1.5,1.57,1.57,0,0,1-1.11-.41,1.44,1.44,0,0,1-.43-1.09V11.18a1.49,1.49,0,0,1,1.54-1.54,1.41,1.41,0,0,1,1.08.44,1.52,1.52,0,0,1,.42,1.1v1.35a9.24,9.24,0,0,1,3.16-2.3,9.87,9.87,0,0,1,4-.83A10.59,10.59,0,0,1,95.43,10.59Z"/><path class="d" d="M3,19.68a8.29,8.29,0,0,1,1-3.45,7.59,7.59,0,0,1,2.89-3A8,8,0,0,1,11,12.21a8,8,0,0,1,4.11,1.07,7.56,7.56,0,0,1,2.85,3,8.27,8.27,0,0,1,1,3.45h3a10.87,10.87,0,0,0-1.39-4.86,10.31,10.31,0,0,0-3.94-4A11.09,11.09,0,0,0,11,9.44a11.2,11.2,0,0,0-5.63,1.43,10.18,10.18,0,0,0-3.94,4A11.26,11.26,0,0,0,0,19.68Z"/><path class="d" d="M18.81,22.19a8.23,8.23,0,0,1-.86,2.5,7.6,7.6,0,0,1-2.85,2.94A8,8,0,0,1,11,28.7,8,8,0,0,1,6.9,27.63,7.63,7.63,0,0,1,4,24.69a8.27,8.27,0,0,1-.88-2.5h-3a10.8,10.8,0,0,0,1.3,3.92A10.19,10.19,0,0,0,5.36,30,11.2,11.2,0,0,0,11,31.47,11.2,11.2,0,0,0,16.62,30a10.19,10.19,0,0,0,3.94-3.93,11,11,0,0,0,1.3-3.92Z"/><path class="d" d="M31,19.68a8.29,8.29,0,0,1,1-3.42,7.79,7.79,0,0,1,6.93-4.05A7.86,7.86,0,0,1,43,13.3a7.73,7.73,0,0,1,2.88,3,8.29,8.29,0,0,1,1,3.42h3a11,11,0,0,0-1.4-4.82,10.46,10.46,0,0,0-4-4,11.52,11.52,0,0,0-11.19,0,10.46,10.46,0,0,0-4,4A11,11,0,0,0,28,19.68Z"/><path class="d" d="M46.76,22.19a8,8,0,0,1-.88,2.5A7.61,7.61,0,0,1,43,27.63a8,8,0,0,1-4.1,1.07,7.64,7.64,0,0,1-5.31-2,7.87,7.87,0,0,1-2.48-4.53h-3.2v7.58a1.4,1.4,0,0,0,0,.35V39a1.53,1.53,0,0,0,.42,1.11,1.42,1.42,0,0,0,1.08.43A1.49,1.49,0,0,0,31,39V27.4a9.7,9.7,0,0,0,3.52,3,10.13,10.13,0,0,0,4.7,1.09,10.43,10.43,0,0,0,9.27-5.4,10.83,10.83,0,0,0,1.28-3.88Z"/><path class="d" d="M120.36,19.68a8.24,8.24,0,0,1,1-3.45,7.56,7.56,0,0,1,2.88-3,8,8,0,0,1,4.1-1.07,7.64,7.64,0,0,1,5.31,2,7.88,7.88,0,0,1,2.59,5.06.54.54,0,0,0,0,.2c0,.06,0,.15,0,.23h3V11.14a1.46,1.46,0,0,0,0-.35V1.93a1.53,1.53,0,0,0-.42-1.11A1.42,1.42,0,0,0,137.8.39a1.49,1.49,0,0,0-1.55,1.54V13.52a9.72,9.72,0,0,0-3.52-3A10.26,10.26,0,0,0,128,9.44a10.49,10.49,0,0,0-5.44,1.45,10.38,10.38,0,0,0-3.83,3.95,11.06,11.06,0,0,0-1.36,4.84Z"/><path class="d" d="M136.15,22.19a7.85,7.85,0,0,1-.87,2.46,7.79,7.79,0,0,1-6.93,4.05,7.86,7.86,0,0,1-4.1-1.09,7.73,7.73,0,0,1-2.88-3,7.85,7.85,0,0,1-.87-2.46h-3a10.84,10.84,0,0,0,1.31,3.86,10.46,10.46,0,0,0,4,4,11.52,11.52,0,0,0,11.19,0,10.46,10.46,0,0,0,3.95-4,10.84,10.84,0,0,0,1.31-3.86Z"/><path class="d" d="M191,19.68a8.44,8.44,0,0,1,1-3.42,8,8,0,0,1,13.92,0,8.45,8.45,0,0,1,1,3.42h3a11,11,0,0,0-1.4-4.82,10.46,10.46,0,0,0-3.95-4,11.52,11.52,0,0,0-11.19,0,10.48,10.48,0,0,0-4,4A11.08,11.08,0,0,0,188,19.68Z"/><path class="d" d="M206.78,22.19a8,8,0,0,1-.88,2.5A7.7,7.7,0,0,1,203,27.63,7.94,7.94,0,0,1,199,28.7a8,8,0,0,1-4.09-1.07A7.7,7.7,0,0,1,192,24.69a8,8,0,0,1-.87-2.5h-3a11,11,0,0,0,1.27,3.88,10.46,10.46,0,0,0,9.28,5.4,10.13,10.13,0,0,0,4.7-1.09,9.7,9.7,0,0,0,3.52-3v2.37a1.45,1.45,0,0,0,.44,1.09,1.56,1.56,0,0,0,1.1.41,1.5,1.5,0,0,0,1.11-.43,1.46,1.46,0,0,0,.44-1.07V22.19Z"/><path class="d" d="M171.84,13.08h2.57v6.6h3v-6.6h4.47a1.37,1.37,0,0,0,1-.37,1.27,1.27,0,0,0,.38-.93,1.31,1.31,0,0,0-.38-1,1.37,1.37,0,0,0-1-.38h-4.47V4.3a1.49,1.49,0,0,0-1.54-1.54,1.45,1.45,0,0,0-1.09.44,1.56,1.56,0,0,0-.41,1.1v6.13h-2.57a1.37,1.37,0,0,0-1,.38,1.3,1.3,0,0,0-.37,1,1.26,1.26,0,0,0,.37.93A1.37,1.37,0,0,0,171.84,13.08Z"/><path class="d" d="M182.75,28.23h-1.07a4,4,0,0,1-3-1.29,4.69,4.69,0,0,1-1.19-3.3V22.19h-3v1.45a8,8,0,0,0,.93,3.89,7,7,0,0,0,2.59,2.73,7.12,7.12,0,0,0,3.75,1h.84a1.68,1.68,0,0,0,1.18-.43,1.39,1.39,0,0,0,.48-1.07,1.61,1.61,0,0,0-.4-1.11A1.32,1.32,0,0,0,182.75,28.23Z"/><path class="d" d="M148.32,19.68a8.28,8.28,0,0,1,1-3.42,8.07,8.07,0,0,1,11.05-3,7.85,7.85,0,0,1,2.87,3,8.28,8.28,0,0,1,1,3.42h3a11.08,11.08,0,0,0-1.39-4.82,10.46,10.46,0,0,0-3.95-4,11.54,11.54,0,0,0-11.2,0,10.46,10.46,0,0,0-3.95,4,11.08,11.08,0,0,0-1.39,4.82Z"/><path class="d" d="M164.12,22.19a8.27,8.27,0,0,1-.88,2.5,7.72,7.72,0,0,1-2.87,2.94,7.9,7.9,0,0,1-4.07,1.07,8,8,0,0,1-4.09-1.07,7.63,7.63,0,0,1-2.89-2.94,8.27,8.27,0,0,1-.88-2.5h-3a10.83,10.83,0,0,0,1.28,3.88,10.46,10.46,0,0,0,9.27,5.4,10.15,10.15,0,0,0,4.71-1.09,9.78,9.78,0,0,0,3.52-3v2.37a1.44,1.44,0,0,0,.43,1.09,1.57,1.57,0,0,0,1.11.41,1.5,1.5,0,0,0,1.11-.43,1.46,1.46,0,0,0,.43-1.07V22.19Z"/></svg>